<svg width="200" height="187" viewBox="0 0 200 187" fill="none" xmlns="http://www.w3.org/2000/svg">
<g filter="url(#filter0_d_2_320)">
<path fill-rule="evenodd" clip-rule="evenodd" d="M10.7647 77.6465C40.5043 77.6465 64.613 53.9042 64.613 24.6166C64.613 18.8127 63.6662 13.2266 61.9165 7.99985C86.4977 12.9115 105 34.3129 105 59.9699C105 89.2575 80.891 113 51.1515 113C27.3054 113 7.07953 97.7351 -0.000274658 76.5867C3.47807 77.2817 7.07814 77.6465 10.7647 77.6465Z" fill="url(#paint0_linear_2_320)"/>
</g>
<g clip-path="url(#clip0_2_320)" filter="url(#filter1_d_2_320)">
<g filter="url(#filter2_b_2_320)">
<path fill-rule="evenodd" clip-rule="evenodd" d="M112.5 136.25C133.211 136.25 150 119.461 150 98.75C150 78.0393 133.211 61.25 112.5 61.25C108.871 61.25 105.363 61.7655 102.044 62.7272C95.7957 50.709 83.2314 42.5003 68.7498 42.5003C48.0392 42.5003 31.2498 59.2896 31.2498 80.0003C31.2498 80.0574 31.25 80.1146 31.2502 80.1717C30.2241 80.0583 29.1814 80 28.125 80C12.592 80 0 92.592 0 108.125C0 122.602 10.9378 134.524 25.0003 136.078V136.25H112.5V136.25Z" fill="url(#paint1_linear_2_320)" fill-opacity="0.6"/>
</g>
</g>
<defs>
<filter id="filter0_d_2_320" x="-0.000274658" y="7.99985" width="115" height="115" filterUnits="userSpaceOnUse" color-interpolation-filters="sRGB">
<feFlood flood-opacity="0" result="BackgroundImageFix"/>
<feColorMatrix in="SourceAlpha" type="matrix" values="0 0 0 0 0 0 0 0 0 0 0 0 0 0 0 0 0 0 127 0" result="hardAlpha"/>
<feOffset dx="5" dy="5"/>
<feGaussianBlur stdDeviation="2.5"/>
<feColorMatrix type="matrix" values="0 0 0 0 0 0 0 0 0 0 0 0 0 0 0 0 0 0 0.25 0"/>
<feBlend mode="normal" in2="BackgroundImageFix" result="effect1_dropShadow_2_320"/>
<feBlend mode="normal" in="SourceGraphic" in2="effect1_dropShadow_2_320" result="shape"/>
</filter>
<filter id="filter1_d_2_320" x="0" y="0" width="200" height="200" filterUnits="userSpaceOnUse" color-interpolation-filters="sRGB">
<feFlood flood-opacity="0" result="BackgroundImageFix"/>
<feColorMatrix in="SourceAlpha" type="matrix" values="0 0 0 0 0 0 0 0 0 0 0 0 0 0 0 0 0 0 127 0" result="hardAlpha"/>
<feOffset dx="25" dy="25"/>
<feGaussianBlur stdDeviation="12.5"/>
<feColorMatrix type="matrix" values="0 0 0 0 0 0 0 0 0 0 0 0 0 0 0 0 0 0 0.25 0"/>
<feBlend mode="normal" in2="BackgroundImageFix" result="effect1_dropShadow_2_320"/>
<feBlend mode="normal" in="SourceGraphic" in2="effect1_dropShadow_2_320" result="shape"/>
</filter>
<filter id="filter2_b_2_320" x="-50" y="-7.49973" width="250" height="193.75" filterUnits="userSpaceOnUse" color-interpolation-filters="sRGB">
<feFlood flood-opacity="0" result="BackgroundImageFix"/>
<feGaussianBlur in="BackgroundImage" stdDeviation="25"/>
<feComposite in2="SourceAlpha" operator="in" result="effect1_backgroundBlur_2_320"/>
<feBlend mode="normal" in="SourceGraphic" in2="effect1_backgroundBlur_2_320" result="shape"/>
</filter>
<linearGradient id="paint0_linear_2_320" x1="62.3691" y1="72.0777" x2="86.6717" y2="96.7552" gradientUnits="userSpaceOnUse">
<stop stop-color="#D2D2D1"/>
<stop offset="1" stop-color="#AAAAAA"/>
</linearGradient>
<linearGradient id="paint1_linear_2_320" x1="37.7605" y1="100" x2="80.9514" y2="153.989" gradientUnits="userSpaceOnUse">
<stop stop-color="white"/>
<stop offset="1" stop-color="#BDE0F5"/>
</linearGradient>
<clipPath id="clip0_2_320">
<rect width="150" height="150" fill="white"/>
</clipPath>
</defs>
</svg>
