<svg width="200" height="191" viewBox="0 0 200 191" fill="none" xmlns="http://www.w3.org/2000/svg">
<g filter="url(#filter0_d_2_270)">
<g filter="url(#filter1_b_2_270)">
<path fill-rule="evenodd" clip-rule="evenodd" d="M112.5 94.4164V94.4167H25V94.2435C10.9377 92.678 0 80.6711 0 66.0914C0 50.448 12.592 37.7664 28.125 37.7664C29.1814 37.7664 30.2242 37.8251 31.2504 37.9393C31.2501 37.8819 31.25 37.8244 31.25 37.7668C31.25 16.9089 48.0393 0.000152588 68.75 0.000152588C83.2315 0.000152588 95.7957 8.26715 102.044 20.3707C105.363 19.4022 108.871 18.8831 112.5 18.8831C133.211 18.8831 150 35.7918 150 56.6497C150 77.5077 133.211 94.4164 112.5 94.4164Z" fill="url(#paint0_linear_2_270)" fill-opacity="0.6"/>
</g>
<g filter="url(#filter2_b_2_270)">
<path d="M32.0522 123.905L42.5962 102.667L53.1402 123.905C54.5465 126.737 54.754 130.017 53.7158 133.004C50.0517 143.547 35.1408 143.547 31.4766 133.004C30.4385 130.017 30.6459 126.737 32.0522 123.905Z" fill="url(#paint1_linear_2_270)" fill-opacity="0.7"/>
</g>
<g filter="url(#filter3_b_2_270)">
<path d="M64.8183 87.238L75.3623 66.0001L85.9064 87.238C87.3127 90.0706 87.5201 93.3499 86.4819 96.3372C82.8178 106.881 67.9069 106.881 64.2427 96.3372C63.2046 93.3499 63.412 90.0706 64.8183 87.238Z" fill="url(#paint2_linear_2_270)" fill-opacity="0.7"/>
</g>
<g filter="url(#filter4_b_2_270)">
<path d="M101.227 105.571L111.771 84.3335L122.315 105.571C123.721 108.404 123.929 111.683 122.891 114.671C119.226 125.214 104.316 125.214 100.651 114.671C99.6133 111.683 99.8207 108.404 101.227 105.571Z" fill="url(#paint3_linear_2_270)" fill-opacity="0.7"/>
</g>
</g>
<defs>
<filter id="filter0_d_2_270" x="0" y="0" width="200" height="200" filterUnits="userSpaceOnUse" color-interpolation-filters="sRGB">
<feFlood flood-opacity="0" result="BackgroundImageFix"/>
<feColorMatrix in="SourceAlpha" type="matrix" values="0 0 0 0 0 0 0 0 0 0 0 0 0 0 0 0 0 0 127 0" result="hardAlpha"/>
<feOffset dx="25" dy="25"/>
<feGaussianBlur stdDeviation="12.5"/>
<feColorMatrix type="matrix" values="0 0 0 0 0 0 0 0 0 0 0 0 0 0 0 0 0 0 0.25 0"/>
<feBlend mode="normal" in2="BackgroundImageFix" result="effect1_dropShadow_2_270"/>
<feBlend mode="normal" in="SourceGraphic" in2="effect1_dropShadow_2_270" result="shape"/>
</filter>
<filter id="filter1_b_2_270" x="-50.3556" y="-50.3554" width="250.711" height="195.128" filterUnits="userSpaceOnUse" color-interpolation-filters="sRGB">
<feFlood flood-opacity="0" result="BackgroundImageFix"/>
<feGaussianBlur in="BackgroundImage" stdDeviation="25.1778"/>
<feComposite in2="SourceAlpha" operator="in" result="effect1_backgroundBlur_2_270"/>
<feBlend mode="normal" in="SourceGraphic" in2="effect1_backgroundBlur_2_270" result="shape"/>
</filter>
<filter id="filter2_b_2_270" x="-5.84239" y="66" width="96.8773" height="111.578" filterUnits="userSpaceOnUse" color-interpolation-filters="sRGB">
<feFlood flood-opacity="0" result="BackgroundImageFix"/>
<feGaussianBlur in="BackgroundImage" stdDeviation="18.3333"/>
<feComposite in2="SourceAlpha" operator="in" result="effect1_backgroundBlur_2_270"/>
<feBlend mode="normal" in="SourceGraphic" in2="effect1_backgroundBlur_2_270" result="shape"/>
</filter>
<filter id="filter3_b_2_270" x="26.9237" y="29.3334" width="96.8773" height="111.578" filterUnits="userSpaceOnUse" color-interpolation-filters="sRGB">
<feFlood flood-opacity="0" result="BackgroundImageFix"/>
<feGaussianBlur in="BackgroundImage" stdDeviation="18.3333"/>
<feComposite in2="SourceAlpha" operator="in" result="effect1_backgroundBlur_2_270"/>
<feBlend mode="normal" in="SourceGraphic" in2="effect1_backgroundBlur_2_270" result="shape"/>
</filter>
<filter id="filter4_b_2_270" x="63.3324" y="47.6668" width="96.8773" height="111.578" filterUnits="userSpaceOnUse" color-interpolation-filters="sRGB">
<feFlood flood-opacity="0" result="BackgroundImageFix"/>
<feGaussianBlur in="BackgroundImage" stdDeviation="18.3333"/>
<feComposite in2="SourceAlpha" operator="in" result="effect1_backgroundBlur_2_270"/>
<feBlend mode="normal" in="SourceGraphic" in2="effect1_backgroundBlur_2_270" result="shape"/>
</filter>
<linearGradient id="paint0_linear_2_270" x1="37.7604" y1="57.909" x2="81.3253" y2="111.981" gradientUnits="userSpaceOnUse">
<stop stop-color="white"/>
<stop offset="1" stop-color="#BDE0F5"/>
</linearGradient>
<linearGradient id="paint1_linear_2_270" x1="29.8535" y1="102.667" x2="50.0965" y2="139.212" gradientUnits="userSpaceOnUse">
<stop stop-color="#94CCFD"/>
<stop offset="1" stop-color="#4EA8F4"/>
</linearGradient>
<linearGradient id="paint2_linear_2_270" x1="62.6196" y1="66.0001" x2="82.8626" y2="102.546" gradientUnits="userSpaceOnUse">
<stop stop-color="#94CCFD"/>
<stop offset="1" stop-color="#4EA8F4"/>
</linearGradient>
<linearGradient id="paint3_linear_2_270" x1="99.0283" y1="84.3335" x2="119.271" y2="120.879" gradientUnits="userSpaceOnUse">
<stop stop-color="#94CCFD"/>
<stop offset="1" stop-color="#4EA8F4"/>
</linearGradient>
</defs>
</svg>
