<svg width="200" height="204" viewBox="0 0 200 204" fill="none" xmlns="http://www.w3.org/2000/svg">
<g filter="url(#filter0_d_2_336)">
<path fill-rule="evenodd" clip-rule="evenodd" d="M10.7647 77.6466C40.5043 77.6466 64.613 53.9043 64.613 24.6166C64.613 18.8128 63.6662 13.2266 61.9165 7.99988C86.4977 12.9116 105 34.3129 105 59.9699C105 89.2575 80.891 113 51.1515 113C27.3054 113 7.07953 97.7351 -0.000274658 76.5867C3.47807 77.2817 7.07814 77.6466 10.7647 77.6466Z" fill="url(#paint0_linear_2_336)"/>
</g>
<g clip-path="url(#clip0_2_336)" filter="url(#filter1_d_2_336)">
<g filter="url(#filter2_b_2_336)">
<path fill-rule="evenodd" clip-rule="evenodd" d="M112.5 136.25C133.211 136.25 150 119.461 150 98.75C150 78.0393 133.211 61.25 112.5 61.25C108.871 61.25 105.363 61.7655 102.044 62.7272C95.7959 50.7088 83.2315 42.5 68.7498 42.5C48.0392 42.5 31.2498 59.2893 31.2498 80C31.2498 80.0573 31.25 80.1145 31.2502 80.1717C30.2241 80.0582 29.1814 80 28.125 80C12.592 80 0 92.592 0 108.125C0 122.602 10.9378 134.524 25.0003 136.078V136.25H28.125H112.5C112.5 136.25 112.5 136.25 112.5 136.25Z" fill="url(#paint1_linear_2_336)" fill-opacity="0.6"/>
</g>
</g>
<g filter="url(#filter3_b_2_336)">
<path d="M46.6422 160.355L59.0752 141.667L71.5083 160.355C74.3916 164.689 74.8099 170.212 72.6124 174.931C67.2545 186.436 50.896 186.436 45.5381 174.931C43.3406 170.212 43.7589 164.689 46.6422 160.355Z" fill="url(#paint2_linear_2_336)" fill-opacity="0.7"/>
</g>
<g filter="url(#filter4_b_2_336)">
<path d="M90.5488 123.689L102.982 105L115.415 123.689C118.298 128.023 118.717 133.545 116.519 138.264C111.161 149.769 94.8026 149.769 89.4447 138.264C87.2472 133.545 87.6655 128.023 90.5488 123.689Z" fill="url(#paint3_linear_2_336)" fill-opacity="0.7"/>
</g>
<g filter="url(#filter5_b_2_336)">
<path d="M139.336 142.022L151.769 123.333L164.203 142.022C167.086 146.356 167.504 151.879 165.307 156.598C159.949 168.103 143.59 168.103 138.232 156.598C136.035 151.879 136.453 146.356 139.336 142.022Z" fill="url(#paint4_linear_2_336)" fill-opacity="0.7"/>
</g>
<defs>
<filter id="filter0_d_2_336" x="-0.000274658" y="7.99988" width="115" height="115" filterUnits="userSpaceOnUse" color-interpolation-filters="sRGB">
<feFlood flood-opacity="0" result="BackgroundImageFix"/>
<feColorMatrix in="SourceAlpha" type="matrix" values="0 0 0 0 0 0 0 0 0 0 0 0 0 0 0 0 0 0 127 0" result="hardAlpha"/>
<feOffset dx="5" dy="5"/>
<feGaussianBlur stdDeviation="2.5"/>
<feColorMatrix type="matrix" values="0 0 0 0 0 0 0 0 0 0 0 0 0 0 0 0 0 0 0.25 0"/>
<feBlend mode="normal" in2="BackgroundImageFix" result="effect1_dropShadow_2_336"/>
<feBlend mode="normal" in="SourceGraphic" in2="effect1_dropShadow_2_336" result="shape"/>
</filter>
<filter id="filter1_d_2_336" x="0" y="0" width="200" height="200" filterUnits="userSpaceOnUse" color-interpolation-filters="sRGB">
<feFlood flood-opacity="0" result="BackgroundImageFix"/>
<feColorMatrix in="SourceAlpha" type="matrix" values="0 0 0 0 0 0 0 0 0 0 0 0 0 0 0 0 0 0 127 0" result="hardAlpha"/>
<feOffset dx="25" dy="25"/>
<feGaussianBlur stdDeviation="12.5"/>
<feColorMatrix type="matrix" values="0 0 0 0 0 0 0 0 0 0 0 0 0 0 0 0 0 0 0.25 0"/>
<feBlend mode="normal" in2="BackgroundImageFix" result="effect1_dropShadow_2_336"/>
<feBlend mode="normal" in="SourceGraphic" in2="effect1_dropShadow_2_336" result="shape"/>
</filter>
<filter id="filter2_b_2_336" x="-50" y="-7.5" width="250" height="193.75" filterUnits="userSpaceOnUse" color-interpolation-filters="sRGB">
<feFlood flood-opacity="0" result="BackgroundImageFix"/>
<feGaussianBlur in="BackgroundImage" stdDeviation="25"/>
<feComposite in2="SourceAlpha" operator="in" result="effect1_backgroundBlur_2_336"/>
<feBlend mode="normal" in="SourceGraphic" in2="effect1_backgroundBlur_2_336" result="shape"/>
</filter>
<filter id="filter3_b_2_336" x="7.47548" y="105" width="103.2" height="115.227" filterUnits="userSpaceOnUse" color-interpolation-filters="sRGB">
<feFlood flood-opacity="0" result="BackgroundImageFix"/>
<feGaussianBlur in="BackgroundImage" stdDeviation="18.3333"/>
<feComposite in2="SourceAlpha" operator="in" result="effect1_backgroundBlur_2_336"/>
<feBlend mode="normal" in="SourceGraphic" in2="effect1_backgroundBlur_2_336" result="shape"/>
</filter>
<filter id="filter4_b_2_336" x="51.3821" y="68.3333" width="103.2" height="115.227" filterUnits="userSpaceOnUse" color-interpolation-filters="sRGB">
<feFlood flood-opacity="0" result="BackgroundImageFix"/>
<feGaussianBlur in="BackgroundImage" stdDeviation="18.3333"/>
<feComposite in2="SourceAlpha" operator="in" result="effect1_backgroundBlur_2_336"/>
<feBlend mode="normal" in="SourceGraphic" in2="effect1_backgroundBlur_2_336" result="shape"/>
</filter>
<filter id="filter5_b_2_336" x="100.17" y="86.6668" width="103.2" height="115.227" filterUnits="userSpaceOnUse" color-interpolation-filters="sRGB">
<feFlood flood-opacity="0" result="BackgroundImageFix"/>
<feGaussianBlur in="BackgroundImage" stdDeviation="18.3333"/>
<feComposite in2="SourceAlpha" operator="in" result="effect1_backgroundBlur_2_336"/>
<feBlend mode="normal" in="SourceGraphic" in2="effect1_backgroundBlur_2_336" result="shape"/>
</filter>
<linearGradient id="paint0_linear_2_336" x1="62.3691" y1="72.0777" x2="86.6717" y2="96.7552" gradientUnits="userSpaceOnUse">
<stop stop-color="#D2D2D1"/>
<stop offset="1" stop-color="#AAAAAA"/>
</linearGradient>
<linearGradient id="paint1_linear_2_336" x1="37.7605" y1="100" x2="80.9515" y2="153.989" gradientUnits="userSpaceOnUse">
<stop stop-color="white"/>
<stop offset="1" stop-color="#BDE0F5"/>
</linearGradient>
<linearGradient id="paint2_linear_2_336" x1="42" y1="141.667" x2="58.8607" y2="182.455" gradientUnits="userSpaceOnUse">
<stop stop-color="#94CCFD"/>
<stop offset="1" stop-color="#4EA8F4"/>
</linearGradient>
<linearGradient id="paint3_linear_2_336" x1="85.9066" y1="105" x2="102.767" y2="145.789" gradientUnits="userSpaceOnUse">
<stop stop-color="#94CCFD"/>
<stop offset="1" stop-color="#4EA8F4"/>
</linearGradient>
<linearGradient id="paint4_linear_2_336" x1="134.694" y1="123.333" x2="151.555" y2="164.122" gradientUnits="userSpaceOnUse">
<stop stop-color="#94CCFD"/>
<stop offset="1" stop-color="#4EA8F4"/>
</linearGradient>
<clipPath id="clip0_2_336">
<rect width="150" height="150" fill="white"/>
</clipPath>
</defs>
</svg>
