<svg width="20" height="27" viewBox="0 0 20 27" fill="none" xmlns="http://www.w3.org/2000/svg">
<path d="M10.8532 10.2857L15.3003 14.7328C16.1798 15.6118 16.7789 16.7318 17.0218 17.9512C17.2646 19.1706 17.1404 20.4347 16.6648 21.5835C16.1891 22.7323 15.3835 23.7142 14.3497 24.4051C13.3159 25.0959 12.1005 25.4647 10.8571 25.4647C9.61376 25.4647 8.39831 25.0959 7.36454 24.4051C6.33077 23.7142 5.52512 22.7323 5.04949 21.5835C4.57386 20.4347 4.44962 19.1706 4.69249 17.9512C4.93536 16.7318 5.53443 15.6118 6.41391 14.7328L10.8532 10.2857Z" stroke="#000749" stroke-opacity="0.3" stroke-width="1.57143" stroke-linecap="round" stroke-linejoin="round"/>
<path d="M17.1414 4.78571L18.8091 6.3971C19.1389 6.71556 19.3635 7.12139 19.4546 7.56324C19.5457 8.00509 19.4991 8.46311 19.3207 8.87937C19.1424 9.29563 18.8402 9.65143 18.4526 9.90176C18.0649 10.1521 17.6091 10.2857 17.1428 10.2857C16.6766 10.2857 16.2208 10.1521 15.8331 9.90176C15.4455 9.65143 15.1433 9.29563 14.965 8.87937C14.7866 8.46311 14.74 8.00509 14.8311 7.56324C14.9222 7.12139 15.1468 6.71556 15.4766 6.3971L17.1414 4.78571Z" stroke="#000749" stroke-opacity="0.3" stroke-width="0.785714" stroke-linecap="round" stroke-linejoin="round"/>
<path d="M4.56948 0.857147L6.79305 2.92894C7.23279 3.33839 7.53233 3.86017 7.65376 4.42826C7.7752 4.99635 7.71308 5.58524 7.47526 6.12043C7.23745 6.65562 6.83462 7.11308 6.31774 7.43493C5.80085 7.75678 5.19313 7.92858 4.57145 7.92858C3.94976 7.92858 3.34204 7.75678 2.82515 7.43493C2.30827 7.11308 1.90544 6.65562 1.66763 6.12043C1.42981 5.58524 1.3677 4.99635 1.48913 4.42826C1.61056 3.86017 1.9101 3.33839 2.34984 2.92894L4.56948 0.857147Z" stroke="#000749" stroke-opacity="0.3" stroke-width="1.57143" stroke-linecap="round" stroke-linejoin="round"/>
</svg>
