<svg width="18" height="15" viewBox="0 0 18 15" fill="none" xmlns="http://www.w3.org/2000/svg">
<path d="M13.4307 4.21641C13.6592 3.98846 13.9404 3.82034 14.2494 3.72692C14.5583 3.63349 14.8855 3.61764 15.2021 3.68077C15.5186 3.7439 15.8147 3.88406 16.0642 4.08886C16.3137 4.29366 16.5089 4.55678 16.6325 4.85495C16.7561 5.15312 16.8043 5.47716 16.7728 5.7984C16.7414 6.11964 16.6313 6.42819 16.4523 6.69675C16.2732 6.96531 16.0307 7.18561 15.7463 7.33816C15.4618 7.49072 15.1442 7.57083 14.8214 7.57141H1.07141M7.03498 1.74926C7.21751 1.56565 7.44257 1.42998 7.69017 1.35432C7.93776 1.27865 8.20022 1.26533 8.4542 1.31554C8.70818 1.36575 8.94583 1.47794 9.146 1.64213C9.34618 1.80632 9.50269 2.01742 9.60162 2.25667C9.70055 2.49592 9.73883 2.75591 9.71306 3.01353C9.6873 3.27114 9.59828 3.5184 9.45393 3.73332C9.30957 3.94824 9.11435 4.12416 8.88562 4.24545C8.65689 4.36674 8.40174 4.42964 8.14284 4.42855H1.07141L7.03498 1.74926ZM9.39213 13.3935C9.57465 13.5772 9.79972 13.7128 10.0473 13.7885C10.2949 13.8642 10.5574 13.8775 10.8113 13.8273C11.0653 13.7771 11.303 13.6649 11.5031 13.5007C11.7033 13.3365 11.8598 13.1254 11.9588 12.8861C12.0577 12.6469 12.096 12.3869 12.0702 12.1293C12.0444 11.8717 11.9554 11.6244 11.8111 11.4095C11.6667 11.1946 11.4715 11.0187 11.2428 10.8974C11.014 10.7761 10.7589 10.7132 10.5 10.7143H1.07141L9.39213 13.3935Z" stroke="#000749" stroke-opacity="0.3" stroke-width="1.57143" stroke-linecap="round" stroke-linejoin="round"/>
</svg>
